<svg class="animated" id="freepik_stories-social-growth" xmlns="http://www.w3.org/2000/svg" viewBox="0 0 500 500" version="1.1" xmlns:xlink="http://www.w3.org/1999/xlink" xmlns:svgjs="http://svgjs.com/svgjs"><style>svg#freepik_stories-social-growth:not(.animated) .animable {opacity: 0;}svg#freepik_stories-social-growth.animated #freepik--background-complete--inject-35 {animation: 1s 1 forwards cubic-bezier(.36,-0.01,.5,1.38) slideUp;animation-delay: 0s;}svg#freepik_stories-social-growth.animated #freepik--Shadow--inject-35 {animation: 1s 1 forwards cubic-bezier(.36,-0.01,.5,1.38) lightSpeedLeft;animation-delay: 0s;}svg#freepik_stories-social-growth.animated #freepik--Mountain--inject-35 {animation: 1s 1 forwards cubic-bezier(.36,-0.01,.5,1.38) slideRight;animation-delay: 0s;}svg#freepik_stories-social-growth.animated #freepik--Characters--inject-35 {animation: 1s 1 forwards cubic-bezier(.36,-0.01,.5,1.38) fadeIn;animation-delay: 0s;}svg#freepik_stories-social-growth.animated #freepik--Icon--inject-35 {animation: 1s 1 forwards cubic-bezier(.36,-0.01,.5,1.38) zoomIn;animation-delay: 0s;}            @keyframes slideUp {                0% {                    opacity: 0;                    transform: translateY(30px);                }                100% {                    opacity: 1;                    transform: inherit;                }            }                    @keyframes lightSpeedLeft {              from {                transform: translate3d(-50%, 0, 0) skewX(20deg);                opacity: 0;              }              60% {                transform: skewX(-10deg);                opacity: 1;              }              80% {                transform: skewX(2deg);              }              to {                opacity: 1;                transform: translate3d(0, 0, 0);              }            }                    @keyframes slideRight {                0% {                    opacity: 0;                    transform: translateX(30px);                }                100% {                    opacity: 1;                    transform: translateX(0);                }            }                    @keyframes fadeIn {                0% {                    opacity: 0;                }                100% {                    opacity: 1;                }            }                    @keyframes zoomIn {                0% {                    opacity: 0;                    transform: scale(0.5);                }                100% {                    opacity: 1;                    transform: scale(1);                }            }        </style><g id="freepik--background-complete--inject-35" class="animable" style="transform-origin: 250px 224.755px;"><rect y="382.4" width="500" height="0.25" style="fill: rgb(224, 224, 224); transform-origin: 250px 382.525px;" id="elel4l2lkkhvh" class="animable"></rect><rect x="104.89" y="393.89" width="44.22" height="0.25" style="fill: rgb(224, 224, 224); transform-origin: 127px 394.015px;" id="el3csgd4v7fvj" class="animable"></rect><rect x="80.36" y="394.01" width="17.2" height="0.25" style="fill: rgb(224, 224, 224); transform-origin: 88.96px 394.135px;" id="el5cphydcdmqe" class="animable"></rect><rect x="208.19" y="392.33" width="20.91" height="0.25" style="fill: rgb(224, 224, 224); transform-origin: 218.645px 392.455px;" id="el727wei5h2ae" class="animable"></rect><rect x="224.91" y="389.63" width="55.28" height="0.25" style="fill: rgb(224, 224, 224); transform-origin: 252.55px 389.755px;" id="elb8yb7bby52n" class="animable"></rect><rect x="366.67" y="394.26" width="13.36" height="0.25" style="fill: rgb(224, 224, 224); transform-origin: 373.35px 394.385px;" id="elom2ryvkdq2" class="animable"></rect><rect x="356.76" y="394.26" width="4.36" height="0.25" style="fill: rgb(224, 224, 224); transform-origin: 358.94px 394.385px;" id="elug5sj7m065" class="animable"></rect><rect x="391.8" y="391.5" width="56.75" height="0.25" style="fill: rgb(224, 224, 224); transform-origin: 420.175px 391.625px;" id="ellji1yixgzu" class="animable"></rect><path d="M237,337.8H43.91a5.71,5.71,0,0,1-5.7-5.71V60.66A5.71,5.71,0,0,1,43.91,55H237a5.71,5.71,0,0,1,5.71,5.71h0V332.09A5.71,5.71,0,0,1,237,337.8ZM43.91,55.2a5.46,5.46,0,0,0-5.45,5.46V332.09a5.46,5.46,0,0,0,5.45,5.46H237a5.48,5.48,0,0,0,5.46-5.46V60.66A5.48,5.48,0,0,0,237,55.2Z" style="fill: rgb(224, 224, 224); transform-origin: 140.46px 196.4px;" id="elu477q3fxln" class="animable"></path><path d="M453.31,337.8H260.21a5.73,5.73,0,0,1-5.71-5.71V60.66A5.72,5.72,0,0,1,260.21,55h193.1A5.71,5.71,0,0,1,459,60.66V332.09A5.7,5.7,0,0,1,453.31,337.8ZM260.21,55.2a5.48,5.48,0,0,0-5.46,5.46V332.09a5.48,5.48,0,0,0,5.46,5.46h193.1a5.48,5.48,0,0,0,5.46-5.46V60.66a5.48,5.48,0,0,0-5.46-5.46Z" style="fill: rgb(224, 224, 224); transform-origin: 356.75px 196.4px;" id="elf7t7s1utby" class="animable"></path><rect x="292.74" y="77.76" width="123.92" height="193.96" style="fill: rgb(224, 224, 224); transform-origin: 354.7px 174.74px;" id="elbcqx27o3tno" class="animable"></rect><rect x="295.29" y="77.76" width="126.82" height="193.96" style="fill: rgb(235, 235, 235); transform-origin: 358.7px 174.74px;" id="eluc9zzwg55o" class="animable"></rect><rect x="292.74" y="271.73" width="123.92" height="10.11" style="fill: rgb(230, 230, 230); transform-origin: 354.7px 276.785px;" id="elqc3q47eyj7d" class="animable"></rect><rect x="304.35" y="271.73" width="126.82" height="10.11" style="fill: rgb(240, 240, 240); transform-origin: 367.76px 276.785px;" id="elizsd3gospvo" class="animable"></rect><rect x="302.91" y="85.38" width="111.58" height="178.73" style="fill: rgb(250, 250, 250); transform-origin: 358.7px 174.745px;" id="eltglbolh0by" class="animable"></rect><polygon points="342.96 264.11 367.9 85.38 389.01 85.38 364.07 264.11 342.96 264.11" style="fill: rgb(255, 255, 255); transform-origin: 365.985px 174.745px;" id="elz7b6ec6j85" class="animable"></polygon><path d="M308,250a.55.55,0,0,1-.54-.55V90.34a.55.55,0,0,1,1.09-.15.38.38,0,0,1,0,.15V249.45A.55.55,0,0,1,308,250Z" style="fill: rgb(230, 230, 230); transform-origin: 308.006px 169.858px;" id="elozybjidlbo8" class="animable"></path><polygon points="368.6 264.11 393.54 85.38 401.77 85.38 376.83 264.11 368.6 264.11" style="fill: rgb(255, 255, 255); transform-origin: 385.185px 174.745px;" id="elgs0cb62s956" class="animable"></polygon><rect x="413.52" y="85.38" width="0.97" height="178.73" style="fill: rgb(230, 230, 230); transform-origin: 414.005px 174.745px;" id="eloomotgall57" class="animable"></rect><polygon points="423.9 91.23 299.99 91.23 299.29 88.34 423.2 88.34 423.9 91.23" style="fill: rgb(224, 224, 224); transform-origin: 361.595px 89.785px;" id="eldp2raeousnp" class="animable"></polygon><polygon points="423.9 93.34 299.99 93.34 299.29 90.46 423.2 90.46 423.9 93.34" style="fill: rgb(224, 224, 224); transform-origin: 361.595px 91.9px;" id="elotbbok3klki" class="animable"></polygon><polygon points="423.9 95.88 299.99 95.88 299.29 92.99 423.2 92.99 423.9 95.88" style="fill: rgb(224, 224, 224); transform-origin: 361.595px 94.435px;" id="elb5jd9h1e8m" class="animable"></polygon><polygon points="423.9 98.71 299.99 98.71 299.29 95.82 423.2 95.82 423.9 98.71" style="fill: rgb(224, 224, 224); transform-origin: 361.595px 97.265px;" id="el649k4uceupa" class="animable"></polygon><polygon points="423.9 102.09 299.99 102.09 299.29 99.2 423.2 99.2 423.9 102.09" style="fill: rgb(224, 224, 224); transform-origin: 361.595px 100.645px;" id="elyr3ch1wfn3" class="animable"></polygon><polygon points="423.9 105.9 299.99 105.9 299.29 103.01 423.2 103.01 423.9 105.9" style="fill: rgb(224, 224, 224); transform-origin: 361.595px 104.455px;" id="elqubm6er8mae" class="animable"></polygon><path d="M92.3,247c0,3,2.11,5.14-.92,5.14s-10-2.11-10-5.14a5.5,5.5,0,0,1,11,0Z" style="fill: rgb(224, 224, 224); transform-origin: 87.1974px 246.82px;" id="el6gj56ctqjw" class="animable"></path><path d="M101.68,249.63c0,3,2.11,5.13-.92,5.13s-10-2.11-10-5.13a5.5,5.5,0,0,1,11,0h-.08Z" style="fill: rgb(224, 224, 224); transform-origin: 96.5774px 249.445px;" id="elx0ubnr38hhj" class="animable"></path><path d="M110.67,248c0,3,2.11,5.13-.92,5.13s-10-2.11-10-5.13a5.5,5.5,0,0,1,11,0h-.08Z" style="fill: rgb(224, 224, 224); transform-origin: 105.567px 247.815px;" id="elzq47zyiib49" class="animable"></path><path d="M78,248.73s.45,10.69,17.63,10.69,17.63-10.69,17.63-10.69Z" style="fill: rgb(240, 240, 240); transform-origin: 95.63px 254.075px;" id="elfpccoa70717" class="animable"></path><rect x="272.5" y="259.43" width="7.79" height="122.97" style="fill: rgb(224, 224, 224); transform-origin: 276.395px 320.915px;" id="eltk2jfnnr32e" class="animable"></rect><rect x="277.34" y="259.43" width="5.41" height="122.97" style="fill: rgb(240, 240, 240); transform-origin: 280.045px 320.915px;" id="el32cz8y7bchg" class="animable"></rect><rect x="122.68" y="259.43" width="161.75" height="9.57" style="fill: rgb(240, 240, 240); transform-origin: 203.555px 264.215px;" id="el0fwq0arm8tlc" class="animable"></rect><rect x="111.4" y="269" width="7.79" height="113.4" style="fill: rgb(224, 224, 224); transform-origin: 115.295px 325.7px;" id="elxuz5sj94ywf" class="animable"></rect><rect x="116.24" y="269" width="5.41" height="113.4" style="fill: rgb(240, 240, 240); transform-origin: 118.945px 325.7px;" id="el9il0av6qwzr" class="animable"></rect><rect x="62.1" y="269" width="7.79" height="113.4" style="fill: rgb(224, 224, 224); transform-origin: 65.995px 325.7px;" id="elfmegumyh74l" class="animable"></rect><rect x="66.94" y="269" width="5.41" height="113.4" style="fill: rgb(240, 240, 240); transform-origin: 69.645px 325.7px;" id="elaygd9f3err" class="animable"></rect><rect x="223.2" y="269" width="7.79" height="113.4" style="fill: rgb(224, 224, 224); transform-origin: 227.095px 325.7px;" id="elaiah1fwgu7" class="animable"></rect><rect x="228.04" y="269" width="5.41" height="113.4" style="fill: rgb(240, 240, 240); transform-origin: 230.745px 325.7px;" id="elqri2q0wd49" class="animable"></rect><rect x="62.1" y="259.43" width="60.58" height="9.57" style="fill: rgb(224, 224, 224); transform-origin: 92.39px 264.215px;" id="elek5h2zpgv2l" class="animable"></rect><polygon points="121.65 218.91 186.67 218.91 196.09 257.3 131.07 257.3 121.65 218.91" style="fill: rgb(224, 224, 224); transform-origin: 158.87px 238.105px;" id="elsksdtnznw2s" class="animable"></polygon><polygon points="131.07 257.3 131.34 259.43 196.36 259.43 196.1 257.3 131.07 257.3" style="fill: rgb(224, 224, 224); transform-origin: 163.715px 258.365px;" id="el5b88mr6oc0n" class="animable"></polygon><polygon points="123.65 218.91 188.67 218.91 198.09 257.3 133.08 257.3 123.65 218.91" style="fill: rgb(240, 240, 240); transform-origin: 160.87px 238.105px;" id="elu4fk6tx894h" class="animable"></polygon><polygon points="134.45 255.55 125.89 220.66 187.3 220.66 195.86 255.55 134.45 255.55" style="fill: rgb(255, 255, 255); transform-origin: 160.875px 238.105px;" id="el14y2ndo9bzb" class="animable"></polygon><polygon points="150.02 257.3 150.28 259.43 221.88 259.43 221.62 257.3 150.02 257.3" style="fill: rgb(235, 235, 235); transform-origin: 185.95px 258.365px;" id="elo70torsxyz9" class="animable"></polygon><path d="M275.63,243.78a5.32,5.32,0,0,0-.56.06v-1.26a1.58,1.58,0,0,0-1.58-1.58H261.15a1.58,1.58,0,0,0-1.58,1.58v16.84h15.5v-2.83a5.29,5.29,0,0,0,.56.05,4.66,4.66,0,0,0,4.66-4.66h0v-3.53A4.67,4.67,0,0,0,275.63,243.78Zm2.66,8.2a2.66,2.66,0,0,1-2.66,2.66h0a2.6,2.6,0,0,1-.56-.06v-8.74a2.6,2.6,0,0,1,.56-.06,2.67,2.67,0,0,1,2.66,2.67Z" style="fill: rgb(230, 230, 230); transform-origin: 269.93px 250.21px;" id="elrvbfgcv8mm" class="animable"></path><path d="M208.59,382.4h-2.16l-6.19-30.48-1.08-5.34-6.75-33.21H166.55l-14,69h-2.16l14.28-70.3a1,1,0,0,1,1-.85h27.59a1,1,0,0,1,1,.85l5.93,29.17,1.08,5.33Z" style="fill: rgb(224, 224, 224); transform-origin: 179.49px 346.81px;" id="elpekz8u35tce" class="animable"></path><path d="M250.12,382.4H248l-14-69H208.07l-6.75,33.23L200.24,352l-6.19,30.48h-2.16l7.27-35.82,1.08-5.31,5.92-29.17a1.07,1.07,0,0,1,1-.85h27.59a1,1,0,0,1,1,.85Z" style="fill: rgb(224, 224, 224); transform-origin: 221.005px 346.905px;" id="eldfevgd8oisu" class="animable"></path><path d="M186.36,312.31h47.53A16.67,16.67,0,0,0,250.55,296l1.77-72.23a12.13,12.13,0,0,0-11.88-12.38H210.39a12.14,12.14,0,0,0-12.06,10.76Z" style="fill: rgb(240, 240, 240); transform-origin: 219.341px 261.85px;" id="elvl8sy9a93tb" class="animable"></path><path d="M212.28,312.31H161.64a2.37,2.37,0,0,1-2.37-2.37v-.22a6.5,6.5,0,0,1,6.51-6.51h46.5v9.1Z" style="fill: rgb(240, 240, 240); transform-origin: 185.775px 307.76px;" id="el9f1wefh205" class="animable"></path><rect x="66.7" y="83.58" width="136.42" height="107.2" style="fill: rgb(224, 224, 224); transform-origin: 134.91px 137.18px;" id="elc6zf9lo8mgo" class="animable"></rect><rect x="68.3" y="83.58" width="136.42" height="107.2" style="fill: rgb(235, 235, 235); transform-origin: 136.51px 137.18px;" id="ele4wnkld1ac9" class="animable"></rect><rect x="77.28" y="92.56" width="118.46" height="89.24" style="fill: rgb(255, 255, 255); transform-origin: 136.51px 137.18px;" id="el5xva1bx30j9" class="animable"></rect><g id="elhd1t3g1bzl"><path d="M77.28,120.26V181.8H180.12c3.14-12.73-.91-25.54-17-32.52-13.89-6-30.44.47-44.88-2.61-16.67-3.56-22.19-17.22-35.89-24.25A39,39,0,0,0,77.28,120.26Z" style="fill: rgb(230, 230, 230); opacity: 0.5; isolation: isolate; transform-origin: 129.191px 151.03px;" class="animable"></path></g><g id="eld4grfbwc3gi"><path d="M77.28,92.56v3.5c11.54,9.38,25.73,27.11,40.9,31.9,24,7.59,56.26-12.92,57.72-35.4Z" style="fill: rgb(230, 230, 230); opacity: 0.7; isolation: isolate; transform-origin: 126.59px 111.064px;" class="animable"></path></g><path d="M175.28,142.11c4.62,11.88,11.91,20.9,20.46,28.95V97.24C179.3,102.17,167.48,122.06,175.28,142.11Z" style="fill: rgb(230, 230, 230); transform-origin: 184.28px 134.15px;" id="el9xswaacy44q" class="animable"></path></g><g id="freepik--Shadow--inject-35" class="animable" style="transform-origin: 250px 416.24px;"><ellipse cx="250" cy="416.24" rx="193.89" ry="11.32" style="fill: rgb(245, 245, 245); transform-origin: 250px 416.24px;" id="ell68i3c81z5" class="animable"></ellipse></g><g id="freepik--Mountain--inject-35" class="animable" style="transform-origin: 250px 343.275px;"><polygon points="74.06 413.98 74.06 416.24 425.94 416.24 425.94 270.31 402.29 270.31 361.66 296.87 322.91 296.87 279.46 325.27 279.46 336.7 261.59 336.7 212.14 369.02 179.29 369.02 138.37 395.77 109.14 395.77 74.06 413.98" style="fill: rgb(236, 236, 236); transform-origin: 250px 343.275px;" id="el18tpahtt3rg" class="animable"></polygon><g id="elqixdgys1pgl"><polygon points="74.06 413.98 74.06 416.24 425.94 416.24 425.94 270.31 402.29 270.31 361.66 296.87 322.91 296.87 279.46 325.27 279.46 336.7 261.59 336.7 212.14 369.02 179.29 369.02 138.37 395.77 109.14 395.77 74.06 413.98" style="opacity: 0.2; isolation: isolate; transform-origin: 250px 343.275px;" class="animable"></polygon></g><polygon points="97.71 416.24 425.94 416.24 425.94 272.57 385.31 299.12 346.56 299.12 303.11 327.52 303.11 338.96 285.24 338.96 235.79 371.28 202.94 371.28 162.03 398.03 132.79 398.03 97.71 416.24" style="fill: rgb(236, 236, 236); transform-origin: 261.825px 344.405px;" id="elsw7pektdf1r" class="animable"></polygon><g id="el64thujjjdub"><polygon points="97.71 416.24 425.94 416.24 425.94 272.57 385.31 299.12 346.56 299.12 303.11 327.52 303.11 338.96 285.24 338.96 235.79 371.28 202.94 371.28 162.03 398.03 132.79 398.03 97.71 416.24" style="fill: rgb(255, 255, 255); opacity: 0.1; isolation: isolate; transform-origin: 261.825px 344.405px;" class="animable"></polygon></g></g><g id="freepik--Characters--inject-35" class="animable" style="transform-origin: 264.255px 211.634px;"><path d="M167,146.69c-1.4,1.63-3,3.45-4.37,5.24s-2.87,3.61-4.23,5.46a91,91,0,0,0-7.31,11.32l-.73,1.45-.27.55c-.08.15-.14.36-.22.54a21,21,0,0,0-.77,2.82c-.42,2.08-.74,4.34-1,6.63-.47,4.58-.78,9.37-1.07,14.07l-5.49.49a93,93,0,0,1-2-14.77,57.41,57.41,0,0,1,.1-7.76,25.29,25.29,0,0,1,.67-4.24c.11-.39.19-.76.34-1.17s.29-.86.4-1.12l.75-1.84a65.2,65.2,0,0,1,3.49-7c1.25-2.24,2.64-4.36,4-6.44s2.91-4.1,4.48-6c.78-1,1.58-2,2.39-2.91s1.62-1.86,2.56-2.87Z" style="fill: rgb(228, 137, 123); transform-origin: 153.227px 167.2px;" id="elk041hnmn4u" class="animable"></path><path d="M168.81,149.21c-1,1.85-2.13,3.64-3.22,5.31-1.88,2.89-3.7,5.39-5,7.11-1.17,1.55-1.92,2.46-1.92,2.46L143.86,154s9-17.52,15.93-18.64C166.93,134.23,173.46,140.91,168.81,149.21Z" style="fill: rgb(236, 236, 236); transform-origin: 157.117px 149.662px;" id="eln81auw7s1vm" class="animable"></path><g id="el7270l0amksp"><path d="M168.81,149.21c-1,1.85-2.13,3.64-3.22,5.31-1.88,2.89-3.7,5.39-5,7.11-1.17,1.55-1.92,2.46-1.92,2.46L143.86,154s9-17.52,15.93-18.64C166.93,134.23,173.46,140.91,168.81,149.21Z" style="opacity: 0.3; isolation: isolate; transform-origin: 157.117px 149.662px;" class="animable"></path></g><polygon points="194.9 362.87 202.24 362.87 202.97 345.86 195.63 345.86 194.9 362.87" style="fill: rgb(228, 137, 123); transform-origin: 198.935px 354.365px;" id="eltdl9kebw6q" class="animable"></polygon><polygon points="123.46 331.18 129.42 335.48 143.48 324.65 137.52 320.35 123.46 331.18" style="fill: rgb(228, 137, 123); transform-origin: 133.47px 327.915px;" id="elotp8t9em4c" class="animable"></polygon><polygon points="202.97 345.86 202.6 354.63 195.25 354.63 195.62 345.86 202.97 345.86" style="fill: rgb(206, 111, 100); transform-origin: 199.11px 350.245px;" id="el64ngzqgha6u" class="animable"></polygon><polygon points="137.52 320.35 143.48 324.65 136.22 330.23 130.27 325.93 137.52 320.35" style="fill: rgb(206, 111, 100); transform-origin: 136.875px 325.29px;" id="elvcy6vcysk3d" class="animable"></polygon><path d="M187.45,199.24s.84,52.28-5.73,72.78c-10.4,32.47-41.82,58.77-41.82,58.77l-11.24-8.11s26.15-22.22,31-49.56c4.31-24.57,2.48-53.81,2.48-73.88Z" style="fill: rgb(236, 236, 236); transform-origin: 158.072px 265.015px;" id="elosedarfryzq" class="animable"></path><g id="elm69amjvkexf"><path d="M187.45,199.24s.84,52.28-5.73,72.78c-10.4,32.47-41.82,58.77-41.82,58.77l-11.24-8.11s26.15-22.22,31-49.56c4.31-24.57,2.48-53.81,2.48-73.88Z" style="fill: rgb(255, 255, 255); opacity: 0.7; isolation: isolate; transform-origin: 158.072px 265.015px;" class="animable"></path></g><path d="M147.29,193.42l2.65,4.76-9.28,1.38s-.95-4,1.34-6.76Z" style="fill: rgb(228, 137, 123); transform-origin: 145.202px 196.18px;" id="eli53kl7188fn" class="animable"></path><polygon points="151.34 204.51 143.62 205.29 140.66 199.56 149.94 198.18 151.34 204.51" style="fill: rgb(228, 137, 123); transform-origin: 146px 201.735px;" id="elzk3gj0hhmhf" class="animable"></polygon><path d="M194.14,108.45c.09.58.47,1,.86,1s.61-.59.52-1.17-.47-1-.86-1S194.05,107.86,194.14,108.45Z" style="fill: rgb(38, 50, 56); transform-origin: 194.83px 108.365px;" id="elkf4kxw75m8g" class="animable"></path><path d="M194.56,109.47a21.07,21.07,0,0,0,3.58,4.56,3.42,3.42,0,0,1-2.71,1Z" style="fill: rgb(222, 87, 83); transform-origin: 196.35px 112.256px;" id="elgedgdw7lv1c" class="animable"></path><path d="M191.5,105.53a.34.34,0,0,1-.35-.33.36.36,0,0,1,.11-.26,3.45,3.45,0,0,1,3-1,.34.34,0,0,1,.27.41.34.34,0,0,1-.4.27h0a2.76,2.76,0,0,0-2.37.83A.33.33,0,0,1,191.5,105.53Z" style="fill: rgb(38, 50, 56); transform-origin: 192.844px 104.716px;" id="elw4gdmh9ulg" class="animable"></path><path d="M174.6,114.9c1.06,5.37,2.11,15.22-1.65,18.8,0,0,1.47,5.46,11.45,5.46,11,0,5.25-5.46,5.25-5.46-6-1.43-5.84-5.87-4.79-10Z" style="fill: rgb(228, 137, 123); transform-origin: 182.051px 127.03px;" id="eleu147bfzi" class="animable"></path><path d="M168.87,137.34c1.19-1.86-.81-6.34-.81-6.34s17.69-4.45,24.91,2.38c1.5,1.41-.16,3.49-.16,3.49Z" style="fill: rgb(236, 236, 236); transform-origin: 180.829px 133.458px;" id="el88o8zzio4ov" class="animable"></path><path d="M132.56,339c-.93,0-2.29-1.82-2.67-2.47a.17.17,0,0,1,0-.19.19.19,0,0,1,.17-.07c.1,0,2.51.52,3.07,1.47a.81.81,0,0,1,.09.68c-.14.43-.4.55-.59.57Zm-2.15-2.29c.63.92,1.67,2,2.19,1.94.05,0,.2,0,.3-.34a.45.45,0,0,0-.06-.39,4.82,4.82,0,0,0-2.43-1.25Z" style="fill: rgb(236, 236, 236); transform-origin: 131.559px 337.634px;" id="eljji93t33ngi" class="animable"></path><path d="M131.23,336.72a4.41,4.41,0,0,1-1.25-.15.18.18,0,0,1,0-.3c.07-.06,1.72-1.38,2.81-1.27a1,1,0,0,1,.68.38.56.56,0,0,1,.05.72C133.16,336.54,132.14,336.72,131.23,336.72Zm-.79-.4c.93.14,2.46,0,2.75-.42a.28.28,0,0,0-.05-.31.61.61,0,0,0-.44-.24A4.14,4.14,0,0,0,130.44,336.32Z" style="fill: rgb(236, 236, 236); transform-origin: 131.764px 335.857px;" id="elhcv7qsygfdn" class="animable"></path><path d="M205.19,363.25a14.16,14.16,0,0,1-2.25-.21.17.17,0,0,1-.14-.14.17.17,0,0,1,.09-.18c.11-.06,2.67-1.53,3.9-1.19a.86.86,0,0,1,.55.4.66.66,0,0,1,0,.76C207.05,363.12,206.14,363.25,205.19,363.25Zm-1.69-.47c1.37.2,3.23.18,3.57-.29a.53.53,0,0,0,0-.39.51.51,0,0,0-.35-.24C205.94,361.66,204.4,362.32,203.5,362.78Z" style="fill: rgb(236, 236, 236); transform-origin: 205.129px 362.365px;" id="elvz7w6nfiva9" class="animable"></path><path d="M203,363h-.1a.17.17,0,0,1-.07-.16A5,5,0,0,1,204,360a1.34,1.34,0,0,1,1-.3.58.58,0,0,1,.64.49c.14.83-1.62,2.42-2.5,2.82Zm1.8-3a1,1,0,0,0-.61.22,4.18,4.18,0,0,0-1,2.27c.91-.55,2.1-1.8,2-2.29,0,0,0-.17-.34-.2Z" style="fill: rgb(236, 236, 236); transform-origin: 204.238px 361.351px;" id="elkt724p6f56s" class="animable"></path><path d="M130.27,335.42l-5.71-6a.65.65,0,0,0-.8-.1l-5.71,3.48a1.07,1.07,0,0,0-.37,1.47,1.2,1.2,0,0,0,.17.21c2,2,3.12,2.93,5.63,5.55,1.55,1.61,5.76,7.27,7.89,9.5s4.62.4,3.94-.7c-3-4.94-4.46-9.84-4.54-12.28A1.71,1.71,0,0,0,130.27,335.42Z" style="fill: rgb(38, 50, 56); transform-origin: 126.476px 339.906px;" id="elsc5cc9s2qoj" class="animable"></path><path d="M202.19,362h-8a.63.63,0,0,0-.62.5L192.11,369a1.07,1.07,0,0,0,.8,1.28,1.15,1.15,0,0,0,.26,0c2.9,0,7.08-.22,10.72-.22,4.25,0,7.92.23,12.91.23,3,0,3.85-3.05,2.59-3.32-5.75-1.26-10.44-1.4-15.41-4.46A3.45,3.45,0,0,0,202.19,362Z" style="fill: rgb(38, 50, 56); transform-origin: 206.018px 366.145px;" id="eltrsa73kg8en" class="animable"></path><g id="el34821t1j4et"><path d="M165.59,154.52c-1.88,2.89-3.7,5.39-5,7.11.15-3.44.86-9,3.53-13.24C165.09,149.35,165.48,151.83,165.59,154.52Z" style="opacity: 0.3; isolation: isolate; transform-origin: 163.09px 155.01px;" class="animable"></path></g><path d="M206,142.61c.4.63,1.13,1.59,1.8,2.48s1.44,1.8,2.2,2.7c1.53,1.79,3.09,3.57,4.72,5.28A76.43,76.43,0,0,0,225,162.35a31.43,31.43,0,0,0,2.67,1.75l.61.35c.07,0,.1.09.23.13l.16.07.22.07a4.05,4.05,0,0,0,.5.12,19.79,19.79,0,0,0,6-.08,105.73,105.73,0,0,0,13.86-3.16l2.37,5a58.16,58.16,0,0,1-14.35,6.71,26,26,0,0,1-8.88,1.25,12.36,12.36,0,0,1-1.35-.14l-.69-.13-.74-.18a11.38,11.38,0,0,1-1.52-.53l-.31-.13-.25-.12-.5-.24c-1.29-.63-2.54-1.32-3.76-2.07a74.48,74.48,0,0,1-12.44-10.17c-1.85-1.87-3.65-3.77-5.34-5.79-.86-1-1.69-2-2.52-3.12a34.43,34.43,0,0,1-2.49-3.64Z" style="fill: rgb(228, 137, 123); transform-origin: 224.05px 158.592px;" id="elqzmdqqk4xmb" class="animable"></path><path d="M248.07,162.93l4.88-5.81,3.32,8.48s-4.21,2-7.49.85Z" style="fill: rgb(228, 137, 123); transform-origin: 252.17px 161.963px;" id="el2n2jpp0756k" class="animable"></path><polygon points="260.11 155.86 261.47 162.64 256.27 165.6 252.96 157.12 260.11 155.86" style="fill: rgb(228, 137, 123); transform-origin: 257.215px 160.73px;" id="el4qss67cq79" class="animable"></polygon><path d="M174.42,110.26c1.56,7.12,2.12,11.37,6.33,14.49,6.33,4.7,14.69,0,15.28-7.43.53-6.7-2.12-17.22-9.6-19a9.94,9.94,0,0,0-12,11.94Z" style="fill: rgb(228, 137, 123); transform-origin: 185.131px 112.339px;" id="elqzworws6vjs" class="animable"></path><path d="M171.41,96.35c-6.25.17-7,6.32-3.9,8.13,0,0-3.6,1.73-1.75,5.86,2.82,6.27,8.22,13.16,13.74,12.78,6.85-.47,8.8-7.93,8.56-15.29,3.61-3.41,1.43-5.07,5-7.15,6.32-3.68,9.52-14.23-1-14.07C181.28,86.78,187.36,95.92,171.41,96.35Z" style="fill: rgb(38, 50, 56); transform-origin: 182.067px 104.872px;" id="eleum3ur34h8s" class="animable"></path><path d="M168.29,103.58s-2.41,1.25-6.12-.91C163.46,105.83,167.42,107.13,168.29,103.58Z" style="fill: rgb(38, 50, 56); transform-origin: 165.23px 104.189px;" id="elcshj7t06zk8" class="animable"></path><path d="M184.3,109.6a8.22,8.22,0,0,0,2.23,4.8c1.66,1.71,3.29.55,3.5-1.61.19-1.94-.45-5.17-2.44-6.07S184.09,107.42,184.3,109.6Z" style="fill: rgb(228, 137, 123); transform-origin: 187.171px 110.844px;" id="elnijpxsqfyzg" class="animable"></path><path d="M144.68,328.42l-4.61,2.75-12.28-8.86,4.09-3.13Z" style="fill: rgb(236, 236, 236); transform-origin: 136.235px 325.175px;" id="elcztcy1fpbu5" class="animable"></path><path d="M180.11,208.22c-1.39,9.42,3.52,35.65,5.22,44.24,1.78-16.06,2.11-35.11,2.14-45.51C183.87,204.51,180.75,203.88,180.11,208.22Z" style="fill: rgb(236, 236, 236); transform-origin: 183.668px 228.748px;" id="elcjqn1qbgrl" class="animable"></path><g id="elhqb4bwe075s"><path d="M180.11,208.22c-1.39,9.42,3.52,35.65,5.22,44.24,1.78-16.06,2.11-35.11,2.14-45.51C183.87,204.51,180.75,203.88,180.11,208.22Z" style="fill: rgb(255, 255, 255); opacity: 0.4; isolation: isolate; transform-origin: 183.668px 228.748px;" class="animable"></path></g><path d="M201.38,199.24s11.07,46.9,11.85,69.3c.87,25.13-7.9,84.39-7.9,84.39H192.89s-1.53-59.72-2.09-82.61c-.6-24.95-15.24-71.08-15.24-71.08Z" style="fill: rgb(236, 236, 236); transform-origin: 194.425px 276.085px;" id="el10ljbkzq0p6" class="animable"></path><g id="elayn3asnh0m6"><path d="M201.38,199.24s11.07,46.9,11.85,69.3c.87,25.13-7.9,84.39-7.9,84.39H192.89s-1.53-59.72-2.09-82.61c-.6-24.95-15.24-71.08-15.24-71.08Z" style="fill: rgb(255, 255, 255); opacity: 0.7; isolation: isolate; transform-origin: 194.425px 276.085px;" class="animable"></path></g><path d="M207.73,348c.06,0-.7,5.16-.7,5.16H191.89l-.41-4.61Z" style="fill: rgb(236, 236, 236); transform-origin: 199.607px 350.58px;" id="elavyrjx5ruw" class="animable"></path><path d="M204.56,159.69c0,2.5-.06,5.25-.2,8.28-.36,8.24-1.26,18.51-3,31.27H162.09c-.27-6,3.52-35.46-2.3-63.88A103,103,0,0,1,173,133.7a145.38,145.38,0,0,1,16.7,0,76,76,0,0,1,11.3,2S204.57,139.83,204.56,159.69Z" style="fill: rgb(236, 236, 236); transform-origin: 182.175px 166.35px;" id="eljaujzk99txg" class="animable"></path><g id="eltf76a0h7dr"><path d="M204.56,159.69c0,2.5-.06,5.25-.2,8.28-.36,8.24-1.26,18.51-3,31.27H162.09c-.27-6,3.52-35.46-2.3-63.88A103,103,0,0,1,173,133.7a145.38,145.38,0,0,1,16.7,0,76,76,0,0,1,11.3,2S204.57,139.83,204.56,159.69Z" style="opacity: 0.3; isolation: isolate; transform-origin: 182.175px 166.35px;" class="animable"></path></g><g id="el5rqpy8z01i8"><path d="M204.56,159.69c0,2.5-.06,5.25-.2,8.28-4.61-4.5-4.92-13.69-4.92-13.69Z" style="opacity: 0.3; isolation: isolate; transform-origin: 202px 161.125px;" class="animable"></path></g><path d="M190.48,144.31c.87,7,16.75,21.74,16.75,21.74l14.3-11.33A82,82,0,0,0,209,140.18C198.66,131.2,189.43,135.94,190.48,144.31Z" style="fill: rgb(236, 236, 236); transform-origin: 205.964px 150.691px;" id="elrix3p9fruw" class="animable"></path><g id="eltkwm8xa2re"><path d="M190.48,144.31c.87,7,16.75,21.74,16.75,21.74l14.3-11.33A82,82,0,0,0,209,140.18C198.66,131.2,189.43,135.94,190.48,144.31Z" style="opacity: 0.3; isolation: isolate; transform-origin: 205.964px 150.691px;" class="animable"></path></g><polygon points="358.03 290.49 350.68 291.21 343.03 273.71 350.38 272.99 358.03 290.49" style="fill: rgb(228, 137, 123); transform-origin: 350.53px 282.1px;" id="els2lzlt9nd6l" class="animable"></polygon><polygon points="406.95 268.49 400.55 272.61 388.95 259.12 395.35 255 406.95 268.49" style="fill: rgb(228, 137, 123); transform-origin: 397.95px 263.805px;" id="elnl0ldcko3bd" class="animable"></polygon><polygon points="343.04 273.72 346.98 282.74 354.65 282.74 350.39 273 343.04 273.72" style="fill: rgb(206, 111, 100); transform-origin: 348.845px 277.87px;" id="elcweavamnkje" class="animable"></polygon><polygon points="395.36 255 388.95 259.12 394.94 266.07 401.34 261.95 395.36 255" style="fill: rgb(206, 111, 100); transform-origin: 395.145px 260.535px;" id="elurd4p2xlgha" class="animable"></polygon><path d="M295,103.66c-.16,2.72-.5,5.2-.89,7.78s-.94,5.08-1.56,7.61a61.23,61.23,0,0,1-5.57,14.8,32.52,32.52,0,0,1-2.19,3.5c-.78,1.11-1.61,2.13-2.44,3.12-1.66,2-3.38,3.85-5.13,5.68-3.53,3.63-7.13,7.1-11,10.41l-2.78-2.68c3.07-3.89,6.22-7.74,9.21-11.64s6.09-7.78,8-11.68a62.74,62.74,0,0,0,4.38-13.29c.53-2.32.93-4.69,1.31-7s.66-4.81.87-7Z" style="fill: rgb(228, 137, 123); transform-origin: 279.22px 129.915px;" id="el306z2d71bp" class="animable"></path><path d="M291.94,54.08c-5.36,0-11.44,5.75-11.19,14s2,20.5-10.75,31.84c4.58,10,26.12,19.37,40.5,12.32,13.63-6.68,8-43.71-1.71-53.41C303.35,53.4,297,51.58,291.94,54.08Z" style="fill: rgb(38, 50, 56); transform-origin: 294.304px 83.8372px;" id="eltuz3xysoz8" class="animable"></path><path d="M300.84,104.6c-.4,2.42-2.41,7-4,10.4-1.18,2.46-2.14,4.31-2.14,4.31l-1.4-.62-11.59-5.16c.88-6.25,2.31-13,9.2-16.07C295.21,95.56,301.55,100.28,300.84,104.6Z" style="fill: rgb(236, 236, 236); transform-origin: 291.302px 108.169px;" id="elo4ypo8ambz" class="animable"></path><g id="el2xrrhq7luuc"><path d="M300.84,104.6c-.4,2.42-2.41,7-4,10.4-1.18,2.46-2.14,4.31-2.14,4.31l-1.4-.62-11.59-5.16c.88-6.25,2.31-13,9.2-16.07C295.21,95.56,301.55,100.28,300.84,104.6Z" style="fill: rgb(255, 255, 255); opacity: 0.6; isolation: isolate; transform-origin: 291.302px 108.169px;" class="animable"></path></g><path d="M296.81,115c-1.18,2.46-2.14,4.31-2.14,4.31l-1.4-.62c.19-2.47.68-6.36,2-8.11A11.07,11.07,0,0,1,296.81,115Z" style="fill: rgb(236, 236, 236); transform-origin: 295.04px 114.945px;" id="ely2zddilrvh" class="animable"></path><g id="elgrlx0xguskm"><path d="M296.81,115.07c-1.18,2.46-2.14,4.31-2.14,4.31l-1.4-.62c.19-2.47.68-6.36,2-8.11A11.07,11.07,0,0,1,296.81,115.07Z" style="fill: rgb(255, 255, 255); opacity: 0.5; isolation: isolate; transform-origin: 295.04px 115.015px;" class="animable"></path></g><path d="M336,131.7,306.5,141C286.1,100.64,289,98.5,289,98.5s4.71-2.69,9.61-4.93l2.23-1a97.62,97.62,0,0,1,13.38-4.24c.67-.18,1.34-.34,2-.5a95.17,95.17,0,0,1,11-1.81c.44,5.59.88,10.32,1.36,14.43.62,5.36,1.29,9.65,2,13.36A117.45,117.45,0,0,0,336,131.7Z" style="fill: rgb(236, 236, 236); transform-origin: 312.429px 113.51px;" id="eltlc3p7edqmn" class="animable"></path><g id="elj0m4jpln2n"><path d="M336,131.7,306.5,141C286.1,100.64,289,98.5,289,98.5s4.71-2.69,9.61-4.93l2.23-1a97.62,97.62,0,0,1,13.38-4.24c.67-.18,1.34-.34,2-.5a95.17,95.17,0,0,1,11-1.81c.44,5.59.88,10.32,1.36,14.43.62,5.36,1.29,9.65,2,13.36A117.45,117.45,0,0,0,336,131.7Z" style="fill: rgb(255, 255, 255); opacity: 0.6; isolation: isolate; transform-origin: 312.429px 113.51px;" class="animable"></path></g><path d="M306.5,141s-1,60.4,6.89,82.22c7.6,20.92,30.27,56.88,30.27,56.88l13.14-.34s-20.87-45.53-24.3-63.54c-5.67-29.87-4.42-82-4.42-82Z" style="fill: rgb(236, 236, 236); transform-origin: 331.63px 207.16px;" id="elbfo1ckz661v" class="animable"></path><g id="elif8kqo64tr"><path d="M306.5,141s-1,60.4,6.89,82.22c7.6,20.92,30.27,56.88,30.27,56.88l13.14-.34s-20.87-45.53-24.3-63.54c-5.67-29.87-4.42-82-4.42-82Z" style="opacity: 0.4; isolation: isolate; transform-origin: 331.63px 207.16px;" class="animable"></path></g><g id="eln2hb8a0n48g"><path d="M318.3,146.19l3.53-10,6.25-2s-.57,23.73.8,48.34C323.21,171.66,318.3,151.66,318.3,146.19Z" style="opacity: 0.3; isolation: isolate; transform-origin: 323.59px 158.36px;" class="animable"></path></g><path d="M313,139.08s20.5,46.89,33.75,73.58c10.7,21.55,44,50.48,44,50.48l9.12-6.33s-25.05-34.26-32.44-48.88c-23.65-46.78-17.82-66.06-31.42-76.23Z" style="fill: rgb(236, 236, 236); transform-origin: 356.435px 197.42px;" id="el4vh0hx02tmf" class="animable"></path><g id="elao3i7fqfbdb"><path d="M313,139.08s20.5,46.89,33.75,73.58c10.7,21.55,44,50.48,44,50.48l9.12-6.33s-25.05-34.26-32.44-48.88c-23.65-46.78-17.82-66.06-31.42-76.23Z" style="opacity: 0.4; isolation: isolate; transform-origin: 356.435px 197.42px;" class="animable"></path></g><path d="M265.22,153.17l-6.68,1.24,4.73,6.4s3.49-2.43,4.22-5.51Z" style="fill: rgb(228, 137, 123); transform-origin: 263.015px 156.99px;" id="elzxaeydk9id8" class="animable"></path><polygon points="254.16 159.47 258.55 163.57 263.26 160.81 258.54 154.41 254.16 159.47" style="fill: rgb(228, 137, 123); transform-origin: 258.71px 158.99px;" id="elou651cs1onh" class="animable"></polygon><path d="M398.19,270.59l6.95-5a.6.6,0,0,1,.79.07l4.74,4.93a1.22,1.22,0,0,1-.09,1.72l-.11.09c-2.46,1.69-3.73,2.39-6.78,4.58-1.88,1.35-5.84,4.61-8.44,6.47s-4.57-.61-3.66-1.61c4.1-4.52,5.19-7.6,5.84-10.15A2,2,0,0,1,398.19,270.59Z" style="fill: rgb(38, 50, 56); transform-origin: 401.173px 274.799px;" id="elftwk3exwjy" class="animable"></path><path d="M349.71,288.94h9a.76.76,0,0,1,.71.55l2,7.14a1.12,1.12,0,0,1-.77,1.39,1.19,1.19,0,0,1-.33,0H339.51c-3.3,0-4-3.34-2.62-3.64,6.12-1.36,9.65-3.22,11.54-5A1.84,1.84,0,0,1,349.71,288.94Z" style="fill: rgb(38, 50, 56); transform-origin: 348.843px 293.485px;" id="el9he34goo367" class="animable"></path><path d="M316.24,87.85v.53c0,.31-.21,7.47-7.53,13.12l-.74.57-.9-.2c-3.88-.84-6.46-2.45-7.69-4.78a6.62,6.62,0,0,1-.75-3.52l2.23-1a97.62,97.62,0,0,1,13.38-4.24C314.9,88.17,315.57,88,316.24,87.85Z" style="fill: rgb(255, 255, 255); transform-origin: 307.428px 94.96px;" id="elcr1223v6rt7" class="animable"></path><path d="M308.14,73.7c.52,4.57,2.17,12.73,6.09,14.65,0,0-.1,6.44-6.75,11.57-8.81-1.92-6.63-7.33-6.63-7.33,4.44-2.67,3.19-6.19,1.29-9.27Z" style="fill: rgb(228, 137, 123); transform-origin: 307.421px 86.81px;" id="el499y1y6yu7c" class="animable"></path><path d="M305.7,77.62l-3.55,5.69a14.5,14.5,0,0,1,1.16,2.25c1.75-.85,4-3.37,3.58-5.35A8,8,0,0,0,305.7,77.62Z" style="fill: rgb(206, 111, 100); transform-origin: 304.546px 81.59px;" id="eljvb6chvficq" class="animable"></path><path d="M306.06,63.51c2.52,7.13,3.73,10.09,1.74,15.14-3,7.59-12.3,9.12-16.9,2.9-4.13-5.61-7.55-16.31-1.93-22a10.31,10.31,0,0,1,14.58-.06A10.17,10.17,0,0,1,306.06,63.51Z" style="fill: rgb(228, 137, 123); transform-origin: 297.408px 70.9558px;" id="elb52h0x350kd" class="animable"></path><path d="M296.62,55.2c-2.42,2.63,2.55,13.63,10.13,15.32s1.46-10.27,1.46-10.27Z" style="fill: rgb(38, 50, 56); transform-origin: 303.273px 62.9418px;" id="el30x6ze6jpqe" class="animable"></path><path d="M297.41,58.28c.28,3-11.77,7.53-12.8,9.75.5-3.61.67-7.84,5.22-10.84s8.3-1.83,8.3-1.83Z" style="fill: rgb(38, 50, 56); transform-origin: 291.37px 61.5827px;" id="elrikoo536rh" class="animable"></path><path d="M296.52,58.4s-1.33,3.45-6.4,7.67a16.63,16.63,0,0,0,9.6-7.28Z" style="fill: rgb(38, 50, 56); transform-origin: 294.92px 62.235px;" id="el7yqp4hmmy6s" class="animable"></path><path d="M310.37,69.3a5.54,5.54,0,0,1-1,4.1c-1.15,1.56-2.91.82-3.58-.88-.61-1.54-.75-4.2.88-5.15a2.47,2.47,0,0,1,3.38.92A2.44,2.44,0,0,1,310.37,69.3Z" style="fill: rgb(228, 137, 123); transform-origin: 307.9px 70.648px;" id="elc4jmg1llbhd" class="animable"></path><path d="M335.86,129.83l2.17,2.22c.17.17,0,.46-.35.56l-30.91,9.78a.51.51,0,0,1-.6-.14l-1.1-2.55c-.07-.18.11-.4.4-.5l29.84-9.44A.55.55,0,0,1,335.86,129.83Z" style="fill: rgb(38, 50, 56); transform-origin: 321.576px 136.075px;" id="elsb24io6835" class="animable"></path><path d="M295.48,70.24c.24.56.13,1.15-.24,1.3s-.86-.17-1.1-.74-.13-1.15.24-1.3S295.24,69.67,295.48,70.24Z" style="fill: rgb(38, 50, 56); transform-origin: 294.81px 70.52px;" id="el6egmt9ao2iv" class="animable"></path><path d="M289.09,72.94c.24.57.13,1.15-.24,1.31s-.86-.17-1.1-.74-.13-1.15.24-1.31S288.85,72.38,289.09,72.94Z" style="fill: rgb(38, 50, 56); transform-origin: 288.42px 73.2254px;" id="elijn7e8snoxe" class="animable"></path><path d="M288.16,72.17l-1.52.18S287.79,73.12,288.16,72.17Z" style="fill: rgb(38, 50, 56); transform-origin: 287.4px 72.4073px;" id="elrburt9ocgdo" class="animable"></path><path d="M291.34,73.06a16.4,16.4,0,0,1-.49,4.47,2.66,2.66,0,0,0,2.18-.48Z" style="fill: rgb(222, 87, 83); transform-origin: 291.94px 75.326px;" id="elfspaq7c34mb" class="animable"></path><path d="M296.62,78.26a.18.18,0,0,1-.07-.34,4.88,4.88,0,0,0,2.91-3.3.17.17,0,0,1,.19-.15h0a.18.18,0,0,1,.15.21h0a5.14,5.14,0,0,1-3.12,3.57Z" style="fill: rgb(38, 50, 56); transform-origin: 298.127px 76.3644px;" id="eld75cxc21vbh" class="animable"></path><path d="M296.39,67.39a.54.54,0,0,1-.18,0,2.94,2.94,0,0,0-2.6-.21.36.36,0,0,1-.48-.15.37.37,0,0,1,.15-.49h0a3.56,3.56,0,0,1,3.28.23.36.36,0,0,1,.13.49A.37.37,0,0,1,296.39,67.39Z" style="fill: rgb(38, 50, 56); transform-origin: 294.914px 66.8212px;" id="el4nx52b55d17" class="animable"></path><path d="M284.8,71.26h-.07a.35.35,0,0,1-.28-.41h0a3.59,3.59,0,0,1,2-2.64.37.37,0,0,1,.47.2.36.36,0,0,1-.19.47h0A2.88,2.88,0,0,0,285.15,71,.34.34,0,0,1,284.8,71.26Z" style="fill: rgb(38, 50, 56); transform-origin: 285.696px 69.7234px;" id="elptekw9zwptm" class="animable"></path><path d="M331.75,93.1c1.19.89,2.19,1.72,3.23,2.62s2,1.8,3,2.73c1.95,1.88,3.81,3.85,5.6,5.91a66,66,0,0,1,5,6.53c.4.56.75,1.17,1.12,1.75s.74,1.17,1.07,1.78.68,1.18,1,1.87l.53,1.1.43,1.13a26.49,26.49,0,0,1,1.28,8.79,48.76,48.76,0,0,1-.89,8.26,78.48,78.48,0,0,1-2,7.85,74.41,74.41,0,0,1-2.83,7.55l-3.61-1.34c.62-2.4,1.21-4.92,1.65-7.41a69.78,69.78,0,0,0,1.07-7.46,48.12,48.12,0,0,0,.17-7.3,28.61,28.61,0,0,0-.43-3.44,17.54,17.54,0,0,0-.91-3.08l-.3-.69-.34-.64c-.27-.46-.64-1-1-1.5s-.66-1-1-1.51-.68-1-1.07-1.49c-1.45-2-3.1-3.81-4.74-5.66s-3.44-3.6-5.27-5.29c-.91-.86-1.83-1.7-2.77-2.52S327.82,100,327,99.3Z" style="fill: rgb(228, 137, 123); transform-origin: 340.509px 122.035px;" id="el590r1cw16bl" class="animable"></path><path d="M345.84,147.24l-5.48,4,7,3.7s2.09-3.7,1.41-6.79Z" style="fill: rgb(228, 137, 123); transform-origin: 344.633px 151.09px;" id="elqshwv91ktk" class="animable"></path><polygon points="338.62 157.72 344.36 159.5 347.4 154.96 340.36 151.26 338.62 157.72" style="fill: rgb(228, 137, 123); transform-origin: 343.01px 155.38px;" id="el3w09ybta9er" class="animable"></polygon><path d="M395.56,273.72h-.12a1,1,0,0,1-.8-.6.62.62,0,0,1,0-.62c.49-.84,3.24-1,3.55-1h0a.18.18,0,0,1,.16.1.18.18,0,0,1,0,.2C397.69,272.53,396.5,273.72,395.56,273.72Zm2.2-1.83c-1.1.08-2.56.34-2.81.78a.22.22,0,0,0,0,.27.68.68,0,0,0,.52.42C396,273.41,396.83,272.87,397.76,271.89Z" style="fill: rgb(236, 236, 236); transform-origin: 396.469px 272.61px;" id="elxffdjg7uzd" class="animable"></path><path d="M398,271.87c-.92,0-2.73-.51-3.07-1.25a.62.62,0,0,1,.2-.76,1,1,0,0,1,.76-.25c1.1.11,2.39,1.89,2.44,2a.19.19,0,0,1,0,.18.19.19,0,0,1-.14.11Zm-2.22-1.9a.55.55,0,0,0-.4.16c-.17.15-.15.26-.12.34.22.49,1.64,1,2.57,1-.46-.57-1.32-1.47-2-1.54Z" style="fill: rgb(236, 236, 236); transform-origin: 396.613px 270.753px;" id="el8mcnlwogh1w" class="animable"></path><path d="M345.7,290.43a3,3,0,0,1-1.76-.42,1.17,1.17,0,0,1-.46-.87.49.49,0,0,1,.23-.49c.81-.55,3.89.84,4.5,1.13a.17.17,0,0,1,.1.18.18.18,0,0,1-.14.16A12.1,12.1,0,0,1,345.7,290.43Zm-1.44-1.56a.62.62,0,0,0-.35.08.2.2,0,0,0-.07.17.76.76,0,0,0,.32.6c.52.4,1.77.45,3.39.16A10.92,10.92,0,0,0,344.26,288.87Z" style="fill: rgb(236, 236, 236); transform-origin: 345.893px 289.48px;" id="elsbno2ylrti" class="animable"></path><path d="M348.13,290.12h-.07c-1-.42-3.07-2.07-2.95-2.92,0-.19.15-.42.61-.48,1.8-.21,2.56,3,2.59,3.19a.2.2,0,0,1-.06.18A.17.17,0,0,1,348.13,290.12Zm-2.24-3.05h-.12c-.19,0-.3.08-.31.17-.06.49,1.36,1.8,2.39,2.37C347.62,288.82,347,287.07,345.89,287.07Z" style="fill: rgb(236, 236, 236); transform-origin: 346.709px 288.416px;" id="ela6184s8stic" class="animable"></path><path d="M294.55,69.46l-1.52.18S294.17,70.41,294.55,69.46Z" style="fill: rgb(38, 50, 56); transform-origin: 293.79px 69.6973px;" id="elqh0f4ngfg8a" class="animable"></path><polygon points="341.81 280.8 358.03 280.39 357.1 275.4 339.38 276.24 341.81 280.8" style="fill: rgb(236, 236, 236); transform-origin: 348.705px 278.1px;" id="elk2ml6ilhqi" class="animable"></polygon><g id="elu9pnfygd9r"><polygon points="341.81 280.8 358.03 280.39 357.1 275.4 339.38 276.24 341.81 280.8" style="fill: rgb(255, 255, 255); opacity: 0.5; isolation: isolate; transform-origin: 348.705px 278.1px;" class="animable"></polygon></g><polygon points="391.21 266.16 401.93 258.53 399.5 253.85 387.72 262.76 391.21 266.16" style="fill: rgb(236, 236, 236); transform-origin: 394.825px 260.005px;" id="elp8v63j7pi7q" class="animable"></polygon><g id="elw0z41j92d8c"><polygon points="391.21 266.16 401.93 258.53 399.5 253.85 387.72 262.76 391.21 266.16" style="fill: rgb(255, 255, 255); opacity: 0.5; isolation: isolate; transform-origin: 394.825px 260.005px;" class="animable"></polygon></g><path d="M332.91,134.44l.8-.26c.16-.05.26-.17.21-.26l-1.46-3.31c0-.1-.2-.14-.36-.09l-.8.26c-.16.05-.26.17-.21.26l1.45,3.31A.31.31,0,0,0,332.91,134.44Z" style="fill: rgb(236, 236, 236); transform-origin: 332.505px 132.483px;" id="elxzmmxt6s4jh" class="animable"></path><path d="M309.11,142l.8-.25c.16-.06.25-.18.21-.27l-1.46-3.31c0-.1-.21-.14-.37-.09l-.8.26c-.16,0-.25.17-.21.26l1.46,3.31C308.78,142,309,142,309.11,142Z" style="fill: rgb(236, 236, 236); transform-origin: 308.7px 140.029px;" id="el4jeca773esp" class="animable"></path><path d="M321,138.2l.8-.25a.22.22,0,0,0,.21-.27l-1.46-3.31c0-.09-.21-.13-.37-.08l-.79.25c-.16.05-.26.17-.22.27l1.46,3.31A.32.32,0,0,0,321,138.2Z" style="fill: rgb(236, 236, 236); transform-origin: 320.588px 136.248px;" id="eltclm9i3ebl" class="animable"></path><g id="elxf5opo5igmo"><path d="M332.91,134.44l.8-.26c.16-.05.26-.17.21-.26l-1.46-3.31c0-.1-.2-.14-.36-.09l-.8.26c-.16.05-.26.17-.21.26l1.45,3.31A.31.31,0,0,0,332.91,134.44Z" style="opacity: 0.4; isolation: isolate; transform-origin: 332.505px 132.483px;" class="animable"></path></g><g id="elrczrlc26gt"><path d="M309.11,142l.8-.25c.16-.06.25-.18.21-.27l-1.46-3.31c0-.1-.21-.14-.37-.09l-.8.26c-.16,0-.25.17-.21.26l1.46,3.31C308.78,142,309,142,309.11,142Z" style="opacity: 0.4; isolation: isolate; transform-origin: 308.7px 140.029px;" class="animable"></path></g><g id="elccdtnvk593e"><path d="M321,138.2l.8-.25a.22.22,0,0,0,.21-.27l-1.46-3.31c0-.09-.21-.13-.37-.08l-.79.25c-.16.05-.26.17-.22.27l1.46,3.31A.32.32,0,0,0,321,138.2Z" style="opacity: 0.4; isolation: isolate; transform-origin: 320.588px 136.248px;" class="animable"></path></g><path d="M330.67,113.83c-2.83-4-5.54-13.31-4.84-16.8l2.8,3.44C329.25,105.83,329.92,110.12,330.67,113.83Z" style="fill: rgb(236, 236, 236); transform-origin: 328.194px 105.43px;" id="elpzha1x2ecv" class="animable"></path><g id="elixu9cja6mg"><path d="M330.67,113.83c-2.83-4-5.54-13.31-4.84-16.8l2.8,3.44C329.25,105.83,329.92,110.12,330.67,113.83Z" style="fill: rgb(255, 255, 255); opacity: 0.5; isolation: isolate; transform-origin: 328.194px 105.43px;" class="animable"></path></g><path d="M327.27,86c3.83-.17,11.36,9.24,11.36,9.24l-7.82,11s-8.78-7-9.46-11.87C320.77,90.31,322.39,86.26,327.27,86Z" style="fill: rgb(236, 236, 236); transform-origin: 329.934px 96.1189px;" id="elddw82q9o5zv" class="animable"></path><g id="el0dpy86ozcyl4"><path d="M327.27,86c3.83-.17,11.36,9.24,11.36,9.24l-7.82,11s-8.78-7-9.46-11.87C320.77,90.31,322.39,86.26,327.27,86Z" style="fill: rgb(255, 255, 255); opacity: 0.6; isolation: isolate; transform-origin: 329.934px 96.1189px;" class="animable"></path></g></g><g id="freepik--Icon--inject-35" class="animable" style="transform-origin: 364.404px 364.878px;"><path d="M375.22,356c-16.43-5-26.61-22.91-26.61-22.91s-5.21-.29-5.46,4.41c-.43,8.26,4.06,14.22,6.82,17.07l-7.9-.44a26.18,26.18,0,0,0-8.36.88l-2.62.72A8.65,8.65,0,0,0,325,366.18l3.76,15.36a19.13,19.13,0,0,0,21.33,14.38c8.05-1.17,20.58-3,22.75-3.39h0l5.72-.48,2-34.46Z" style="fill: rgb(255, 255, 255); transform-origin: 352.649px 364.603px;" id="el45pgvqq5x29" class="animable"></path><rect x="375.68" y="351.27" width="28.39" height="45.4" rx="3.13" style="fill: rgb(236, 236, 236); transform-origin: 389.875px 373.97px;" id="elh9uuv67auac" class="animable"></rect><g id="elykv3kfdcsd"><rect x="375.68" y="351.27" width="28.39" height="45.4" rx="3.13" style="opacity: 0.3; isolation: isolate; transform-origin: 389.875px 373.97px;" class="animable"></rect></g></g><defs>     <filter id="active" height="200%">         <feMorphology in="SourceAlpha" result="DILATED" operator="dilate" radius="2"></feMorphology>                <feFlood flood-color="#32DFEC" flood-opacity="1" result="PINK"></feFlood>        <feComposite in="PINK" in2="DILATED" operator="in" result="OUTLINE"></feComposite>        <feMerge>            <feMergeNode in="OUTLINE"></feMergeNode>            <feMergeNode in="SourceGraphic"></feMergeNode>        </feMerge>    </filter>    <filter id="hover" height="200%">        <feMorphology in="SourceAlpha" result="DILATED" operator="dilate" radius="2"></feMorphology>                <feFlood flood-color="#ff0000" flood-opacity="0.5" result="PINK"></feFlood>        <feComposite in="PINK" in2="DILATED" operator="in" result="OUTLINE"></feComposite>        <feMerge>            <feMergeNode in="OUTLINE"></feMergeNode>            <feMergeNode in="SourceGraphic"></feMergeNode>        </feMerge>            <feColorMatrix type="matrix" values="0   0   0   0   0                0   1   0   0   0                0   0   0   0   0                0   0   0   1   0 "></feColorMatrix>    </filter></defs></svg>